<svg xmlns="http://www.w3.org/2000/svg">
    <symbol id="logo" viewBox="0 0 64 64">
        <g clip-path="url(#a)">
            <path d="M0 16C0 7.163 7.163 0 16 0h32c8.837 0 16 7.163 16 16v32c0 8.837-7.163 16-16 16H16C7.163 64 0 56.837 0 48V16Z"
                  fill="#44A3DD"/>
            <path d="M12.5 23h13.176c.99 0 1.9.541 2.373 1.41L39.779 46H24.083a2.7 2.7 0 0 1-2.373-1.41L11.182 25.215A1.5 1.5 0 0 1 12.5 23Z"
                  fill="#BEE5F7"/>
            <path d="M51.59 23a1.5 1.5 0 0 1 1.353 2.15l-.034.066L42.382 44.59A2.7 2.7 0 0 1 40.105 46l-.096.001H24.082l-.096-.002a2.699 2.699 0 0 1-1.377-.435c.203.116.432.191.677.213.026.003.236.022.47-.04.099-.027.463-.112.85-.473.115-.108.277-.34.484-.697l10.953-20.155A2.7 2.7 0 0 1 38.32 23l.095-.001h13.176Z"
                  fill="#fff"/>
        </g>
        <defs>
            <clipPath id="a">
                <rect width="64" height="64" rx="16" fill="#fff"/>
            </clipPath>
        </defs>
    </symbol>

    <symbol id="light-theme" viewBox="0 0 40 40" fill="none">
        <g clip-path="url(#a)">
            <path d="M20 26.667a6.667 6.667 0 1 0 0-13.334 6.667 6.667 0 0 0 0 13.334Zm0-21.334V8m0 24v2.667M9.626 9.627l1.894 1.893m16.96 16.96 1.893 1.893M5.333 20H8m24 0h2.667M9.626 30.373l1.894-1.893m16.96-16.96 1.893-1.893"
                  stroke="#111" stroke-linecap="round" stroke-linejoin="round" stroke-opacity=".8" stroke-width="2"/>
        </g>
        <defs>
            <clipPath id="a">
                <path d="M4 4h32v32H4z" fill="#fff"/>
            </clipPath>
        </defs>
    </symbol>

    <symbol id="dark-theme" viewBox="0 0 40 40" fill="none">
        <path d="M32 21.053a12.001 12.001 0 0 1-23.662 1.508A12 12 0 0 1 18.947 8 9.333 9.333 0 0 0 32 21.053Z"
              stroke="#fff" stroke-linecap="round" stroke-linejoin="round" stroke-opacity=".8" stroke-width="2"/>
    </symbol>
</svg>