<svg xmlns="http://www.w3.org/2000/svg" width="97" height="96" fill="none" viewBox="0 0 97 96">
  <rect width="96" height="96" x=".8" fill="url(#a)" rx="48"/>
  <path fill="#fff" d="M16.087 61.13a2.488 2.488 0 0 1-1.791-.696 2.364 2.364 0 0 1 0-3.446 2.488 2.488 0 0 1 1.791-.722 2.487 2.487 0 0 1 1.804.722 2.338 2.338 0 0 1 0 3.446 2.487 2.487 0 0 1-1.804.697Zm28.129-.398h-4.579L27.595 41.723a8.43 8.43 0 0 1-.759-1.493h-.112a25.61 25.61 0 0 1 .15 3.546v16.956h-4.056V34.868h4.876L39.401 53.43c.498.771.809 1.244.958 1.592h.062a24.486 24.486 0 0 1-.174-3.483v-16.67h4.03l-.061 25.863Zm19.706 0H49.764V34.868h13.598v3.645h-9.418v7.328h8.709v3.62h-8.709v7.651h9.953l.025 3.62ZM84.05 38.514h-7.252v22.218h-4.193V38.514h-7.228v-3.646h18.661l.012 3.645Z"/>
  <defs>
    <linearGradient id="a" x1="13" x2="73.5" y1="3" y2="96" gradientUnits="userSpaceOnUse">
      <stop stop-color="#6B3FA0"/>
      <stop offset="1" stop-color="#552D85"/>
    </linearGradient>
  </defs>
</svg>
