<svg xmlns="http://www.w3.org/2000/svg" width="97" height="96" fill="none" viewBox="0 0 97 96">
  <rect width="96" height="96" x=".6" fill="url(#a)" rx="48"/>
  <path fill="#fff" d="m79.082 26.959-27.56-16.003c-1.739-.99-4.002-.99-5.754 0L17.913 26.959c-1.794 1.032-3.063 2.971-3.063 5.045v31.964c0 2.075 1.303 4.014 3.096 5.052l7.36 4.18c3.517 1.733 4.76 1.733 6.361 1.733 5.208 0 8.183-3.15 8.183-8.643V34.734c0-.446-.232-1.109-.67-1.109h-3.514c-.445 0-1.44.663-1.44 1.108V66.29c0 2.435-2.203 4.858-6.32 2.8l-7.604-4.383a.863.863 0 0 1-.452-.738V32.004c0-.3.347-.603.614-.758l27.765-15.975a.973.973 0 0 1 .9 0l27.426 15.971c.262.159.17.452.17.762v31.964c0 .305.114.602-.145.749L49.025 80.702a.782.782 0 0 1-.788 0l-7.067-4.218c-.213-.124-.466-.168-.67-.054-1.967 1.114-2.33 1.262-4.174 1.902-.454.158-1.123.432.256 1.206l9.249 5.47a5.81 5.81 0 0 0 2.904.78 5.816 5.816 0 0 0 2.917-.78L79.081 69.02c1.794-1.045 2.644-2.977 2.644-5.052V32.004c0-2.074-.85-4.008-2.643-5.045ZM57.294 58.903c-7.329 0-8.943-2.022-9.481-5.666-.063-.393-.396-.862-.795-.862h-3.582c-.443 0-.8.538-.8.979 0 4.666 2.537 10.32 14.658 10.32 8.775 0 13.806-3.41 13.806-9.443 0-5.983-4.042-7.553-12.552-8.68-8.601-1.136-9.475-1.71-9.475-3.725 0-1.662.74-3.877 7.109-3.877 5.69 0 7.788 1.221 8.651 5.057a.79.79 0 0 0 .775.619h3.596c.222 0 .433-.09.588-.248.15-.17.23-.383.21-.611-.557-6.605-4.946-9.683-13.82-9.683-7.895 0-12.604 3.333-12.604 8.921 0 6.062 4.685 7.737 12.263 8.486 9.066.889 9.771 2.214 9.771 3.997 0 3.097-2.486 4.416-8.318 4.416Z"/>
  <defs>
    <linearGradient id="a" x1="1" x2="89" y1="4" y2="102.5" gradientUnits="userSpaceOnUse">
      <stop stop-color="#83CD29"/>
      <stop offset="1" stop-color="#74BE1A"/>
    </linearGradient>
  </defs>
</svg>
