<svg xmlns="http://www.w3.org/2000/svg" width="97" height="96" fill="none" viewBox="0 0 97 96">
  <rect width="96" height="96" x=".2" fill="url(#a)" rx="48"/>
  <path fill="#386F9F" d="M47.846 17.92c-2.454.01-4.796.22-6.858.584-6.075 1.073-7.177 3.32-7.177 7.462v5.47h14.353v1.824h-19.74c-4.17 0-7.823 2.507-8.966 7.278-1.318 5.466-1.377 8.878 0 14.587 1.02 4.25 3.457 7.276 7.628 7.276h4.936v-6.557c0-4.738 4.098-8.917 8.966-8.917h14.337c3.99 0 7.176-3.286 7.176-7.293V25.967c0-3.89-3.282-6.813-7.176-7.462a44.824 44.824 0 0 0-7.479-.586Zm-7.762 4.399c1.482 0 2.694 1.23 2.694 2.744 0 1.507-1.211 2.726-2.694 2.726-1.488 0-2.693-1.219-2.693-2.726 0-1.514 1.205-2.744 2.693-2.744Z"/>
  <path fill="#FFCF46" d="M64.29 33.26v6.373c0 4.941-4.189 9.1-8.966 9.1H40.988c-3.927 0-7.176 3.361-7.176 7.294v13.668c0 3.89 3.381 6.178 7.176 7.293 4.543 1.335 8.9 1.577 14.336 0 3.613-1.047 7.176-3.152 7.176-7.293v-5.47H48.164V62.4h21.514c4.17 0 5.726-2.91 7.177-7.277 1.498-4.496 1.434-8.82 0-14.587-1.031-4.153-3-7.278-7.177-7.278H64.29Zm-8.062 34.61c1.489 0 2.694 1.22 2.694 2.728 0 1.512-1.206 2.742-2.694 2.742-1.482 0-2.693-1.23-2.693-2.742 0-1.509 1.21-2.728 2.693-2.728Z"/>
  <defs>
    <linearGradient id="a" x1="0" x2="80.5" y1="1.5" y2="103.5" gradientUnits="userSpaceOnUse">
      <stop stop-color="#242429"/>
      <stop offset="1" stop-color="#18181D"/>
    </linearGradient>
  </defs>
</svg>
